ffmpeg version git-2019-11-13-a7245ad Copyright (c) 2000-2019 the FFmpeg developers
  built with gcc 9.2.1 (GCC) 20191010
  configuration: --enable-gpl --enable-version3 --enable-sdl2 --enable-fontconfig --enable-gnutls --enable-iconv --enable-libass --enable-libdav1d --enable-libbluray --enable-libfreetype --enable-libmp3lame --enable-libopencore-amrnb --enable-libopencore-amrwb --enable-libopenjpeg --enable-libopus --enable-libshine --enable-libsnappy --enable-libsoxr --enable-libtheora --enable-libtwolame --enable-libvpx --enable-libwavpack --enable-libwebp --enable-libx264 --enable-libx265 --enable-libxml2 --enable-libzimg --enable-lzma --enable-zlib --enable-gmp --enable-libvidstab --enable-libvorbis --enable-libvo-amrwbenc --enable-libmysofa --enable-libspeex --enable-libxvid --enable-libaom --enable-libmfx --enable-ffnvcodec --enable-cuvid --enable-d3d11va --enable-nvenc --enable-nvdec --enable-dxva2 --enable-avisynth --enable-libopenmpt --enable-amf
  libavutil      56. 35.101 / 56. 35.101
  libavcodec     58. 62.100 / 58. 62.100
  libavformat    58. 35.100 / 58. 35.100
  libavdevice    58.  9.100 / 58.  9.100
  libavfilter     7. 66.100 /  7. 66.100
  libswscale      5.  6.100 /  5.  6.100
  libswresample   3.  6.100 /  3.  6.100
  libpostproc    55.  6.100 / 55.  6.100
Splitting the commandline.
Reading option '-v' ... matched as option 'v' (set logging level) with argument 'debug'.
Reading option '-nostdin' ... matched as option 'stdin' (enable or disable interaction on standard input) with argument 0.
Reading option '-progress' ... matched as option 'progress' (write program-readable progress information) with argument 'C:/Users/Adit/AppData/Local/Temp/KritaFFmpegProgress.ptYeTB'.
Reading option '-r' ... matched as option 'r' (set frame rate (Hz value, fraction or abbreviation)) with argument '24'.
Reading option '-start_number' ... matched as AVOption 'start_number' with argument '0'.
Reading option '-i' ... matched as input url with argument 'E:/FMP/Kazi's Stuffs/GIF/HivemindLogo%04d.png'.
Reading option '-i' ... matched as input url with argument 'E:/FMP/Kazi's Stuffs/GIF/palette.png'.
Reading option '-lavfi' ... matched as option 'lavfi' (create a complex filtergraph) with argument '[0:v][1:v] paletteuse'.
Reading option '-y' ... matched as option 'y' (overwrite output files) with argument '1'.
Reading option 'E:/FMP/Kazi's Stuffs/GIF/Attack01.gif' ... matched as output url.
Finished splitting the commandline.
Parsing a group of options: global .
Applying option v (set logging level) with argument debug.
Applying option nostdin (enable or disable interaction on standard input) with argument 0.
Applying option progress (write program-readable progress information) with argument C:/Users/Adit/AppData/Local/Temp/KritaFFmpegProgress.ptYeTB.
[file @ 0000015b6434dd80] Setting default whitelist 'file,crypto'
Applying option lavfi (create a complex filtergraph) with argument [0:v][1:v] paletteuse.
Applying option y (overwrite output files) with argument 1.
Successfully parsed a group of options.
Parsing a group of options: input url E:/FMP/Kazi's Stuffs/GIF/HivemindLogo%04d.png.
Applying option r (set frame rate (Hz value, fraction or abbreviation)) with argument 24.
Successfully parsed a group of options.
Opening an input file: E:/FMP/Kazi's Stuffs/GIF/HivemindLogo%04d.png.
[image2 @ 0000015b6438e200] Opening 'E:/FMP/Kazi's Stuffs/GIF/HivemindLogo0000.png' for reading
[file @ 0000015b64391980] Setting default whitelist 'file,crypto'
[AVIOContext @ 0000015b64399b40] Statistics: 1692630 bytes read, 0 seeks
[image2 @ 0000015b6438e200] Opening 'E:/FMP/Kazi's Stuffs/GIF/HivemindLogo0001.png' for reading
[file @ 0000015b64399dc0] Setting default whitelist 'file,crypto'
[AVIOContext @ 0000015b643997c0] Statistics: 1692630 bytes read, 0 seeks
[image2 @ 0000015b6438e200] Opening 'E:/FMP/Kazi's Stuffs/GIF/HivemindLogo0002.png' for reading
[file @ 0000015b643997c0] Setting default whitelist 'file,crypto'
[AVIOContext @ 0000015b64399880] Statistics: 1692630 bytes read, 0 seeks
[image2 @ 0000015b6438e200] Probe buffer size limit of 5000000 bytes reached
Input #0, image2, from 'E:/FMP/Kazi's Stuffs/GIF/HivemindLogo%04d.png':
  Duration: 00:00:00.60, start: 0.000000, bitrate: N/A
    Stream #0:0, 3, 1/25: Video: png, 1 reference frame, rgba(pc), 1920x1080 [SAR 3937:3937 DAR 16:9], 0/1, 25 fps, 25 tbr, 25 tbn, 25 tbc
Successfully opened the file.
Parsing a group of options: input url E:/FMP/Kazi's Stuffs/GIF/palette.png.
Successfully parsed a group of options.
Opening an input file: E:/FMP/Kazi's Stuffs/GIF/palette.png.
[NULL @ 0000015b643908c0] Opening 'E:/FMP/Kazi's Stuffs/GIF/palette.png' for reading
[file @ 0000015b64390f00] Setting default whitelist 'file,crypto'
[png_pipe @ 0000015b643908c0] Format png_pipe probed with size=2048 and score=99
[png_pipe @ 0000015b643908c0] Before avformat_find_stream_info() pos: 0 bytes read:936 seeks:0 nb_streams:1
[png_pipe @ 0000015b643908c0] After avformat_find_stream_info() pos: 936 bytes read:936 seeks:0 frames:1
Input #1, png_pipe, from 'E:/FMP/Kazi's Stuffs/GIF/palette.png':
  Duration: N/A, bitrate: N/A
    Stream #1:0, 1, 1/25: Video: png, 1 reference frame, rgba(pc), 16x16 [SAR 1:1 DAR 1:1], 0/1, 25 tbr, 25 tbn, 25 tbc
Successfully opened the file.
Parsing a group of options: output url E:/FMP/Kazi's Stuffs/GIF/Attack01.gif.
Successfully parsed a group of options.
Opening an output file: E:/FMP/Kazi's Stuffs/GIF/Attack01.gif.
[file @ 0000015b64396a80] Setting default whitelist 'file,crypto'
Successfully opened the file.
detected 6 logical cores
Stream mapping:
  Stream #0:0 (png) -> paletteuse:default
  Stream #1:0 (png) -> paletteuse:palette
  paletteuse -> Stream #0:0 (gif)
cur_dts is invalid st:0 (0) [init:0 i_done:0 finish:0] (this is harmless if it occurs once at the start per stream)
    Last message repeated 1 times
[image2 @ 0000015b6438e200] Opening 'E:/FMP/Kazi's Stuffs/GIF/HivemindLogo0003.png' for reading
[file @ 0000015b64955500] Setting default whitelist 'file,crypto'
cur_dts is invalid st:0 (0) [init:0 i_done:0 finish:0] (this is harmless if it occurs once at the start per stream)
[AVIOContext @ 0000015b649555c0] Statistics: 1691726 bytes read, 0 seeks
[image2 @ 0000015b6438e200] Opening 'E:/FMP/Kazi's Stuffs/GIF/HivemindLogo0004.png' for reading
[file @ 0000015b64955500] Setting default whitelist 'file,crypto'
[AVIOContext @ 0000015b649555c0] Statistics: 1691726 bytes read, 0 seeks
[image2 @ 0000015b6438e200] Opening 'E:/FMP/Kazi's Stuffs/GIF/HivemindLogo0005.png' for reading
[file @ 0000015b64955500] Setting default whitelist 'file,crypto'
cur_dts is invalid st:0 (0) [init:0 i_done:0 finish:0] (this is harmless if it occurs once at the start per stream)
[AVIOContext @ 0000015b649555c0] Statistics: 1705226 bytes read, 0 seeks
[image2 @ 0000015b6438e200] Opening 'E:/FMP/Kazi's Stuffs/GIF/HivemindLogo0006.png' for reading
[file @ 0000015b64955500] Setting default whitelist 'file,crypto'
[AVIOContext @ 0000015b649555c0] Statistics: 1698864 bytes read, 0 seeks
[image2 @ 0000015b6438e200] Opening 'E:/FMP/Kazi's Stuffs/GIF/HivemindLogo0007.png' for reading
[file @ 0000015b64955500] Setting default whitelist 'file,crypto'
[AVIOContext @ 0000015b649555c0] Statistics: 1698864 bytes read, 0 seeks
cur_dts is invalid st:0 (0) [init:0 i_done:0 finish:0] (this is harmless if it occurs once at the start per stream)
[image2 @ 0000015b6438e200] Opening 'E:/FMP/Kazi's Stuffs/GIF/HivemindLogo0008.png' for reading
[file @ 0000015b64955500] Setting default whitelist 'file,crypto'
[AVIOContext @ 0000015b649555c0] Statistics: 1693551 bytes read, 0 seeks
[image2 @ 0000015b6438e200] Opening 'E:/FMP/Kazi's Stuffs/GIF/HivemindLogo0009.png' for reading
[file @ 0000015b64955500] Setting default whitelist 'file,crypto'
[AVIOContext @ 0000015b649555c0] Statistics: 1693551 bytes read, 0 seeks
[image2 @ 0000015b6438e200] Opening 'E:/FMP/Kazi's Stuffs/GIF/HivemindLogo0010.png' for reading
[file @ 0000015b64955500] Setting default whitelist 'file,crypto'
cur_dts is invalid st:0 (0) [init:0 i_done:0 finish:0] (this is harmless if it occurs once at the start per stream)
[AVIOContext @ 0000015b649555c0] Statistics: 1675460 bytes read, 0 seeks
[image2 @ 0000015b6438e200] Opening 'E:/FMP/Kazi's Stuffs/GIF/HivemindLogo0011.png' for reading
[file @ 0000015b64955500] Setting default whitelist 'file,crypto'
[AVIOContext @ 0000015b649555c0] Statistics: 1675460 bytes read, 0 seeks
[image2 @ 0000015b6438e200] Opening 'E:/FMP/Kazi's Stuffs/GIF/HivemindLogo0012.png' for reading
[file @ 0000015b64955500] Setting default whitelist 'file,crypto'
cur_dts is invalid st:0 (0) [init:0 i_done:0 finish:0] (this is harmless if it occurs once at the start per stream)
    Last message repeated 1 times
[AVIOContext @ 0000015b649555c0] Statistics: 1691739 bytes read, 0 seeks
[image2 @ 0000015b6438e200] Opening 'E:/FMP/Kazi's Stuffs/GIF/HivemindLogo0013.png' for reading
[file @ 0000015b64969300] Setting default whitelist 'file,crypto'
[AVIOContext @ 0000015b64955500] Statistics: 1691739 bytes read, 0 seeks
[image2 @ 0000015b6438e200] Opening 'E:/FMP/Kazi's Stuffs/GIF/HivemindLogo0014.png' for reading
[file @ 0000015b64969300] Setting default whitelist 'file,crypto'
[AVIOContext @ 0000015b64955500] Statistics: 1687005 bytes read, 0 seeks
cur_dts is invalid st:0 (0) [init:0 i_done:0 finish:0] (this is harmless if it occurs once at the start per stream)
    Last message repeated 1 times
[graph 0 input from stream 0:0 @ 0000015b64a0cb40] Setting 'video_size' to value '1920x1080'
[graph 0 input from stream 0:0 @ 0000015b64a0cb40] Setting 'pix_fmt' to value '26'
[graph 0 input from stream 0:0 @ 0000015b64a0cb40] Setting 'time_base' to value '1/24'
[graph 0 input from stream 0:0 @ 0000015b64a0cb40] Setting 'pixel_aspect' to value '3937/3937'
[graph 0 input from stream 0:0 @ 0000015b64a0cb40] Setting 'sws_param' to value 'flags=2'
[graph 0 input from stream 0:0 @ 0000015b64a0cb40] Setting 'frame_rate' to value '24/1'
[graph 0 input from stream 0:0 @ 0000015b64a0cb40] w:1920 h:1080 pixfmt:rgba tb:1/24 fr:24/1 sar:3937/3937 sws_param:flags=2
[graph 0 input from stream 1:0 @ 0000015b6440d6c0] Setting 'video_size' to value '16x16'
[graph 0 input from stream 1:0 @ 0000015b6440d6c0] Setting 'pix_fmt' to value '26'
[graph 0 input from stream 1:0 @ 0000015b6440d6c0] Setting 'time_base' to value '1/25'
[graph 0 input from stream 1:0 @ 0000015b6440d6c0] Setting 'pixel_aspect' to value '1/1'
[graph 0 input from stream 1:0 @ 0000015b6440d6c0] Setting 'sws_param' to value 'flags=2'
[graph 0 input from stream 1:0 @ 0000015b6440d6c0] Setting 'frame_rate' to value '25/1'
[graph 0 input from stream 1:0 @ 0000015b6440d6c0] w:16 h:16 pixfmt:rgba tb:1/25 fr:25/1 sar:1/1 sws_param:flags=2
[format @ 0000015b6440dc00] Setting 'pix_fmts' to value 'rgb8|bgr8|rgb4_byte|bgr4_byte|gray|pal8'
[auto_scaler_0 @ 0000015b64954bc0] w:iw h:ih flags:'bilinear' interl:0
[Parsed_paletteuse_0 @ 0000015b6498aec0] auto-inserting filter 'auto_scaler_0' between the filter 'graph 0 input from stream 0:0' and the filter 'Parsed_paletteuse_0'
[auto_scaler_1 @ 0000015b6440e080] w:iw h:ih flags:'bilinear' interl:0
[Parsed_paletteuse_0 @ 0000015b6498aec0] auto-inserting filter 'auto_scaler_1' between the filter 'graph 0 input from stream 1:0' and the filter 'Parsed_paletteuse_0'
[AVFilterGraph @ 0000015b64967840] query_formats: 5 queried, 2 merged, 2 already done, 0 delayed
[swscaler @ 0000015b64a0df80] Forcing full internal H chroma due to input having non subsampled chroma
[auto_scaler_0 @ 0000015b64954bc0] w:1920 h:1080 fmt:rgba sar:3937/3937 -> w:1920 h:1080 fmt:bgra sar:1/1 flags:0x2
[swscaler @ 0000015b64a22880] Forcing full internal H chroma due to input having non subsampled chroma
[auto_scaler_1 @ 0000015b6440e080] w:16 h:16 fmt:rgba sar:1/1 -> w:16 h:16 fmt:bgra sar:1/1 flags:0x2
[Parsed_paletteuse_0 @ 0000015b6498aec0] [framesync @ 0000015b6498afc8] Selected 1/600 time base
[Parsed_paletteuse_0 @ 0000015b6498aec0] [framesync @ 0000015b6498afc8] Sync level 2
Output #0, gif, to 'E:/FMP/Kazi's Stuffs/GIF/Attack01.gif':
  Metadata:
    encoder         : Lavf58.35.100
    Stream #0:0, 0, 1/100: Video: gif, 1 reference frame, pal8, 1920x1080 [SAR 1:1 DAR 16:9], 0/1, q=2-31, 200 kb/s, 24 fps, 100 tbn, 24 tbc (default)
    Metadata:
      encoder         : Lavc58.62.100 gif
Clipping frame in rate conversion by 0.000008
[gif @ 0000015b64395d80] 1x1 image at pos (1919;1079) [area:1920x1080]
    Last message repeated 1 times
[gif @ 0000015b64395d80] 687x460 image at pos (723;359) [area:1920x1080]
[gif @ 0000015b64395d80] 1x1 image at pos (1919;1079) [area:1920x1080]
frame=    5 fps=0.0 q=-0.0 size=     512kB time=00:00:00.18 bitrate=23301.7kbits/s speed=0.343x    [gif @ 0000015b64395d80] 685x561 image at pos (723;379) [area:1920x1080]
[gif @ 0000015b64395d80] 716x577 image at pos (694;363) [area:1920x1080]
[gif @ 0000015b64395d80] 1x1 image at pos (1919;1079) [area:1920x1080]
[gif @ 0000015b64395d80] 673x468 image at pos (694;348) [area:1920x1080]
[gif @ 0000015b64395d80] 1x1 image at pos (1919;1079) [area:1920x1080]
[gif @ 0000015b64395d80] 642x530 image at pos (718;286) [area:1920x1080]
[gif @ 0000015b64395d80] 1x1 image at pos (1919;1079) [area:1920x1080]
frame=   12 fps= 11 q=-0.0 size=     768kB time=00:00:00.47 bitrate=13386.1kbits/s speed=0.43x    [gif @ 0000015b64395d80] 491x448 image at pos (794;286) [area:1920x1080]
[gif @ 0000015b64395d80] 1x1 image at pos (1919;1079) [area:1920x1080]
[gif @ 0000015b64395d80] 542x510 image at pos (853;275) [area:1920x1080]
[Parsed_paletteuse_0 @ 0000015b6498aec0] [framesync @ 0000015b6498afc8] Sync level 0
[out_0_0 @ 0000015b6440da40] EOF on sink link out_0_0:default.
No more output streams to write to, finishing.
frame=   15 fps= 11 q=-0.0 Lsize=    1075kB time=00:00:00.59 bitrate=14927.6kbits/s speed=0.421x    
[AVIOContext @ 0000015b6438df40] Statistics: 0 seeks, 3 writeouts
video:1075kB audio:0kB subtitle:0kB other streams:0kB global headers:0kB muxing overhead: 0.001817%
Input file #0 (E:/FMP/Kazi's Stuffs/GIF/HivemindLogo%04d.png):
  Input stream #0:0 (video): 15 packets read (25372801 bytes); 15 frames decoded; 
  Total: 15 packets (25372801 bytes) demuxed
Input file #1 (E:/FMP/Kazi's Stuffs/GIF/palette.png):
  Input stream #1:0 (video): 1 packets read (936 bytes); 1 frames decoded; 
  Total: 1 packets (936 bytes) demuxed
Output file #0 (E:/FMP/Kazi's Stuffs/GIF/Attack01.gif):
  Output stream #0:0 (video): 15 frames encoded; 15 packets muxed (1100891 bytes); 
  Total: 15 packets (1100891 bytes) muxed
16 frames successfully decoded, 0 decoding errors
[AVIOContext @ 0000015b64396bc0] Statistics: 0 seeks, 5 writeouts
[AVIOContext @ 0000015b64399100] Statistics: 936 bytes read, 0 seeks
